<?xml version="1.0" encoding="utf-8"?>
<svg width="250.04004" height="406.68778" viewBox="0 0 250.04004 406.68778" xmlns="http://www.w3.org/2000/svg">
  <path d="M 236.693 66.904 L 236.693 172.904 C 236.693 182.278 229.067 189.904 219.693 189.904 L 113.693 189.904 C 104.319 189.904 96.693 182.278 96.693 172.904 L 96.693 66.904 C 96.693 57.53 104.319 49.904 113.693 49.904 L 219.693 49.904 C 229.067 49.904 236.693 57.53 236.693 66.904 Z M 219.693 187.904 C 227.977 187.904 234.693 181.188 234.693 172.904 L 234.693 119.463 C 234.693 82.151 204.446 51.904 167.134 51.904 L 113.693 51.904 C 105.409 51.904 98.693 58.619 98.693 66.904 L 98.693 172.904 C 98.693 181.188 105.409 187.904 113.693 187.904 L 219.693 187.904 Z" fill="#e6e6e6"/>
  <g transform="matrix(1, 0, 0, 1, -89.9646, -0.468262)">
    <path id="b-226" d="M213.46512,148.67319c5.64194,.91399,10.68677-1.25626,11.26784-4.84689s-3.52132-7.2413-9.16537-8.15485c-2.24957-.39584-4.56122-.24722-6.74156,.43347l-23.95399-3.57069-1.43602,11.27663,23.76685,2.32285c1.85466,1.33447,4.00198,2.20529,6.26225,2.53951l.00002-.00002Z" fill="#ffb6b6"/>
    <path d="M127.86174,65.6504l-13.08166,7.25056s17.91828,54.1102,23.99198,63.33571,65.09514,15.8941,65.09514,15.8941l.8176-19.8326-37.91864-17.09318-38.90441-49.55461v.00002Z" fill="#2f2e41"/>
  </g>
  <g transform="matrix(1, 0, 0, 1, -89.9646, -0.468262)">
    <polygon points="109.58914 396.12967 123.17653 396.12833 126.65781 343.37235 109.58641 343.72062 109.58914 396.12967" fill="#ffb6b6"/>
    <path d="M156.14127,395.82145h0c.42307,.71252,.64629,3.01221,.64629,3.84082h0c0,2.54691-2.06464,4.61163-4.61162,4.61163h-42.07858c-1.73748,0-3.14607-1.40851-3.14607-3.14606v-1.75186s-2.08159-5.26526,2.20403-11.755c0,0,5.32645,5.08157,13.28554-2.87753l2.34706-4.25189,16.98951,12.42526,9.41704,1.15915c2.06026,.25357,3.88686-.03934,4.94662,1.74551h.00017l.00002-.00003Z" fill="#2f2e41"/>
  </g>
  <g transform="matrix(1, 0, 0, 1, -89.9646, -0.468262)">
    <polygon points="94.58914 396.12967 108.17653 396.12833 114.64014 343.71921 94.58641 343.72062 94.58914 396.12967" fill="#ffb6b6"/>
    <path d="M141.14127,395.82145h0c.42307,.71252,.64629,3.01221,.64629,3.84082h0c0,2.54691-2.06464,4.61163-4.61162,4.61163h-42.07858c-1.73748,0-3.14607-1.40851-3.14607-3.14606v-1.75186s-2.08159-5.26526,2.20403-11.755c0,0,5.32645,5.08157,13.28554-2.87753l2.34706-4.25189,16.98951,12.42526,9.41704,1.15915c2.06026,.25357,3.88686-.03934,4.94662,1.74551h.00017l.00002-.00003Z" fill="#2f2e41"/>
  </g>
  <circle cx="39.584" cy="29.742" r="22.52" fill="#ffb6b6"/>
  <path d="M 65.193 169.404 L 3.524 161.734 C 3.524 161.734 -1.807 201.404 6.193 217.404 L 4.193 265.404 C 4.193 265.404 -6.625 355.79 1.784 369.597 L 37.693 368.904 L 39.193 283.404 L 65.193 169.404 Z" fill="#2f2e41"/>
  <path d="M 46.693 65.904 L 23.693 49.904 L 19.032 57.904 C 19.032 57.904 0.693 92.904 -1.307 103.904 C -3.307 114.904 4.693 162.904 4.693 162.904 L 62.693 173.904 C 62.693 173.904 66.693 153.904 64.693 149.904 C 62.693 145.904 47.193 75.404 47.193 75.404 L 46.693 65.904 Z" fill="#79dbe4"/>
  <path d="M 40.193 76.404 L 20.193 53.628 C 20.193 53.628 -8.807 85.404 -7.807 99.404 C -6.807 113.404 -12.807 207.404 -12.807 207.404 L 33.039 207.404 C 33.039 207.404 50.193 167.404 53.193 146.404 C 56.193 125.404 40.193 76.404 40.193 76.404 Z" fill="#2f2e41"/>
  <path d="M 47.193 75.404 C 47.193 75.404 67.693 141.904 67.693 147.904 C 67.693 153.904 63.193 208.404 63.193 208.404 L 54.937 208.404 L 60.693 144.904 L 47.193 75.404 Z" fill="#2f2e41"/>
  <path d="M 48.193 17.404 L 50.193 25.404 L 47.193 37.404 L 42.606 37.404 C 42.606 37.404 34.193 25.404 31.193 38.404 L 31.193 45.644 L 24.193 52.404 C 24.193 52.404 22.193 47.404 16.193 43.404 C 10.193 39.404 3.193 16.404 21.193 11.404 C 21.193 11.404 34.503 -3.503 47.138 0.09 C 48.471 0.47 47.391 3.073 48.693 3.904 C 49.473 4.401 52.651 2.969 53.41 3.651 C 54.166 4.331 53.964 6.024 54.693 6.904 C 56.298 8.841 58.776 10.367 60.193 13.404 C 60.193 13.404 62.193 14.404 58.193 15.404 C 54.193 16.404 48.193 17.404 48.193 17.404 Z" fill="#2f2e41"/>
  <path id="c-227" d="M 33.854 194.682 C 37.696 198.913 42.994 200.36 45.686 197.914 C 48.379 195.468 47.446 190.056 43.601 185.824 C 42.089 184.113 40.188 182.788 38.059 181.962 L 21.552 164.24 L 13.401 172.164 L 30.539 188.793 C 31.158 190.992 32.295 193.012 33.854 194.682 Z" fill="#ffb6b6"/>
  <path d="M 18.654 76.404 L 3.905 73.921 C 3.905 73.921 -15.807 127.404 -16.807 138.404 C -17.807 149.404 24.193 191.404 24.193 191.404 L 37.193 176.404 L 18.193 139.404 L 18.654 76.404 Z" fill="#2f2e41"/>
  <g transform="matrix(1, 0, 0, 1, -89.9646, -0.468262)">
    <path d="M403.784,315.42197c-.8443-1.42365-4.49683,.10068-5.16833-1.19135-.66913-1.28735,2.72449-3.24887,4.66333-7.7298,.34967-.80807,2.55298-5.90033,.92188-7.47162-3.09174-2.97836-17.23962,9.31259-22.19073,5.29041-1.08661-.88269-1.8457-2.64484-5.13428-5.50583-1.30829-1.13815-2.09937-1.65204-2.86499-1.46085-1.08636,.27127-1.17242,1.72522-2.33734,4.58398-1.74701,4.28729-2.78027,4.02841-3.79816,7.44897-.75562,2.53925-.58301,4.01553-1.47217,4.30313-1.25824,.40701-2.41638-2.28632-4.01099-2.04517-1.6272,.24612-2.61096,3.38205-2.92169,5.72998-.58313,4.40607,1.03497,7.31348,1.93182,10.37064,.97461,3.32236,1.55304,8.37494-.69769,15.52759l-22.27719,62.76614c4.91812-12.87943,19.15842-48.18536,25.14218-61.3053,1.72742-3.78745,3.6347-7.62909,7.55096-9.14526,3.77045-1.45978,8.94867-.58823,15.55029-2.17862,.771-.1857,2.91052-.73007,3.17981-1.98849,.22266-1.04037-1.03583-1.62109-.84247-2.59549,.25934-1.30701,2.73413-1.32306,5.77533-2.83096,2.14447-1.06332,3.48047-2.32785,4.62933-3.41531,.34637-.32785,5.49512-5.26166,4.37115-7.1568h-.00006Z" fill="#f2f2f2"/>
    <path d="M316.13889,348.4647c-.94235,.0036-1.24805,2.23611-2.07593,2.1929-.82492-.04303-.80847-2.2746-2.4483-4.5191-.29572-.40475-2.1593-2.95547-3.40115-2.60825-2.35385,.65808-.4035,11.14828-3.80618,12.41782-.74673,.27863-1.83066,.14276-4.18369,.93134-.9361,.31372-1.41656,.55371-1.54364,.98465-.1803,.61145,.50845,1.07324,1.57544,2.46979,1.60016,2.09445,1.17496,2.52692,2.56009,4.01343,1.02826,1.10352,1.80264,1.44476,1.68723,1.96414-.16327,.73499-1.81934,.52631-2.16107,1.37851-.34869,.86966,.90659,2.25729,1.9693,3.08725,1.99429,1.5575,3.88812,1.6022,5.64737,2.04413,1.91183,.48026,4.55859,1.65421,7.41974,4.82266l24.37836,29.04382c-4.90228-6.12997-18.12189-23.30609-22.83472-30.0285-1.3605-1.94061-2.69568-3.98517-2.30984-6.34479,.37143-2.27176,2.29327-4.56177,3.41748-8.26077,.13132-.43201,.48145-1.63916-.05847-2.13443-.44638-.40945-1.09451,.04068-1.51697-.33539-.56665-.50443,.13953-1.72369,.27689-3.6514,.09686-1.35931-.13831-2.37988-.34055-3.25754-.06097-.26459-.99695-4.21518-2.25137-4.21036v.00009Z" fill="#f2f2f2"/>
    <path d="M334.93851,352.68479l-.56775-5.06818,.2594-.38422c1.20035-1.77667,1.81216-3.51175,1.81949-5.15872,.00122-.26184-.01102-.52371-.02325-.79044-.04895-1.05719-.11011-2.37134,.5751-3.90329,.38422-.85406,1.46344-2.83142,3.08594-2.5867,.43683,.06119,.76721,.26184,1.01804,.49677,.03671-.05872,.07465-.11746,.11502-.18109,.50534-.77087,.90546-1.10123,1.29089-1.41937,.29611-.24472,.60202-.49677,1.08167-1.0939,.21045-.26184,.37442-.49188,.5127-.68521,.41971-.58487,.96786-1.28235,1.93451-1.27011,1.03271,.04895,1.57355,.90302,1.93207,1.46832,.63995,1.00824,.92993,1.73508,1.12204,2.21716,.06976,.17621,.14929,.37442,.18967,.43561,.33282,.48944,3.03824,.0318,4.05746-.13461,2.28937-.38177,4.27039-.71213,5.08655,.73172,.5849,1.03271,.15051,2.39825-1.33008,4.1676-.4613,.55063-.95197,.96909-1.38757,1.29703,.36096,.21536,.68396,.54572,.81494,1.06454h0c.30835,1.22849-.74762,2.45944-3.13733,3.66348-.59344,.30099-1.39246,.70236-2.51205,.89569-.52737,.09055-1.00214,.11258-1.40836,.12482-.00858,.23492-.06363,.48944-.20679,.75128-.41971,.77087-1.29333,1.13794-2.60995,1.04984-1.44876-.07587-2.64175-.35239-3.69406-.59467-.91891-.21045-1.7106-.3891-2.33218-.3475-1.15262,.09299-2.04099,1.01559-3.08347,2.21228l-2.6026,3.04187h-.00003Z" fill="#f2f2f2"/>
    <path d="M337.5722,322.50885l-4.75842,1.83472-.43744-.15347c-2.02304-.71045-3.85654-.86215-5.45151-.45148-.2536,.06525-.50378,.14349-.7587,.22299-1.01019,.31549-2.26587,.70801-3.92151,.43378-.92361-.155-3.11002-.69739-3.28485-2.32889-.05161-.43805,.05869-.80853,.22232-1.11075-.06613-.0206-.13257-.04239-.20435-.06531-.87384-.2933-1.29489-.59653-1.70041-.88867-.31183-.22437-.63324-.45633-1.33249-.76883-.30667-.13715-.57077-.2374-.79285-.32211-.67221-.2576-1.4859-.61096-1.71924-1.5491-.2146-1.01135,.47437-1.75113,.93024-2.24133,.81296-.87476,1.44244-1.33963,1.86005-1.64774,.15274-.11215,.32431-.23938,.37326-.29395,.38901-.44608-.73987-2.94693-1.15936-3.89062-.94998-2.11765-1.77203-3.95007-.5824-5.10577,.85059-.8277,2.28165-.75391,4.36868,.22946,.64963,.30655,1.17886,.67502,1.60657,1.01321,.11676-.40378,.35437-.80005,.82303-1.05829h0c1.11011-.60986,2.56863,.09933,4.33945,2.10547,.44168,.49768,1.03259,1.16876,1.50357,2.2027,.22134,.48715,.36307,.9408,.47797,1.33066,.22943-.0513,.48956-.06259,.77917,.00946,.85211,.21045,1.4288,.9624,1.67752,2.2583,.2941,1.42062,.32922,2.64474,.36179,3.72409,.02951,.94226,.0575,1.75336,.25543,2.34406,.38232,1.09134,1.50006,1.71661,2.92206,2.42148l3.60254,1.74591-.00012,.00003Z" fill="#f2f2f2"/>
    <path d="M334.93851,307.57785l-.56775-5.06818,.2594-.38422c1.20035-1.77667,1.81216-3.51175,1.81949-5.15872,.00122-.26184-.01102-.52371-.02325-.79044-.04895-1.05719-.11011-2.37134,.5751-3.90329,.38422-.85406,1.46344-2.83142,3.08594-2.5867,.43683,.06119,.76721,.26184,1.01804,.49677,.03671-.05872,.07465-.11746,.11502-.18109,.50534-.77087,.90546-1.10123,1.29089-1.41937,.29611-.24472,.60202-.49677,1.08167-1.0939,.21045-.26184,.37442-.49188,.5127-.68521,.41971-.58487,.96786-1.28235,1.93451-1.27011,1.03271,.04895,1.57355,.90302,1.93207,1.46832,.63995,1.00824,.92993,1.73508,1.12204,2.21716,.06976,.17621,.14929,.37442,.18967,.43561,.33282,.48944,3.03824,.0318,4.05746-.13461,2.28937-.38177,4.27039-.71213,5.08655,.73172,.5849,1.03271,.15051,2.39825-1.33008,4.1676-.4613,.55063-.95197,.96909-1.38757,1.29703,.36096,.21536,.68396,.54572,.81494,1.06454h0c.30835,1.22849-.74762,2.45944-3.13733,3.66348-.59344,.30099-1.39246,.70236-2.51205,.89569-.52737,.09055-1.00214,.11258-1.40836,.12482-.00858,.23492-.06363,.48944-.20679,.75128-.41971,.77087-1.29333,1.13794-2.60995,1.04984-1.44876-.07587-2.64175-.35239-3.69406-.59467-.91891-.21045-1.7106-.3891-2.33218-.3475-1.15262,.09299-2.04099,1.01559-3.08347,2.21228l-2.6026,3.04187h-.00003Z" fill="#f2f2f2"/>
    <path d="M340.12415,405.9556l-1.0621-.66565-.25696-1.22604,.25696,1.22604-1.23828,.14194c-.01959-.11502-.08688-.37933-.18842-.79291-.55429-2.26611-2.24408-9.16235-3.65369-20.02304-.9838-7.58145-1.54053-15.37579-1.65555-23.17017-.11502-7.80658,.25452-13.71661,.55063-18.46661,.22391-3.5827,.49557-6.99411,.7623-10.31744,.70969-8.87848,1.379-17.26505,.88098-26.54974-.11011-2.07278-.3414-6.38721-2.862-10.97818-1.46222-2.66257-3.47626-5.02655-5.98709-7.02347l1.56131-1.96265c2.77145,2.20737,4.99963,4.8259,6.62338,7.78214,2.79471,5.09018,3.04678,9.79129,3.16791,12.05005,.50656,9.44867-.17007,17.91602-.88712,26.88013-.26431,3.31107-.53595,6.70779-.75864,10.27582-.29367,4.70599-.65952,10.56458-.54572,18.27084,.11258,7.70135,.66318,15.40027,1.63351,22.88629,1.39246,10.72366,3.0578,17.51712,3.60474,19.74896,.29123,1.1918,.35239,1.44141,.05383,1.91373v-.00003Z" fill="#f2f2f2"/>
    <path d="M321.07507,292.09195c-.10278,0-.20679-.00244-.31201-.0098-2.13397-.11502-4.11008-1.39246-5.87451-3.79562-.82715-1.13062-1.25052-2.42029-2.09482-4.99231-.13092-.39645-.76721-2.40805-1.15387-5.17584-.2533-1.8085-.22147-2.56467,.13705-3.23276,.39767-.74396,1.04129-1.26276,1.76566-1.6127-.0318-.23984-.00613-.487,.0979-.73907,.42703-1.04495,1.56253-.9079,2.17679-.84183,.31079,.03915,.69867,.09055,1.11716,.06851,.65829-.0318,1.01193-.2276,1.54785-.52127,.5127-.28143,1.15018-.63138,2.09604-.82471,1.86478-.3891,3.42731,.1395,3.94244,.31323,2.71027,.90302,4.04645,3.01007,5.59308,5.44992,.30835,.48944,1.36676,2.271,2.06543,4.71332,.50412,1.76199,.43317,2.5451,.28143,3.12753-.30835,1.19669-1.03638,1.8819-2.88525,3.39429-1.93085,1.58334-2.89993,2.37625-3.73199,2.85834-1.93695,1.11838-3.15323,1.82071-4.76837,1.82071v.00006Z" fill="#f2f2f2"/>
  </g>
  <path d="M 338.075 404.347 C 338.075 404.811 337.699 405.188 337.235 405.188 L -89.125 405.188 C -89.589 405.188 -89.965 404.811 -89.965 404.347 C -89.965 403.884 -89.589 403.507 -89.125 403.507 L 337.235 403.507 C 337.699 403.507 338.075 403.884 338.075 404.347 Z" fill="#e6e6e6"/>
  <g transform="matrix(1, 0, 0, 1, -89.9646, -0.468262)">
    <path d="M235.70119,111.55896c-.06361,5.79864-10.01833,11.89083-19.13048,11.79088s-18.90891-8.40891-18.84531-14.20756c.06361-5.79864,1.69856-16.67849,10.81071-16.57854s27.22867,13.19657,27.16505,18.99521h.00002Z" fill="#ff6884"/>
    <path d="M219.21487,159.69681l2.45532-33.54241s33.0748-6.63762,12.00934-46.37107l-27.97638-2.30699s-29.87663,34.17436,5.46219,49.06286l1.11975,33.13811c-7.73026,.38264-13.50699,2.09886-13.53033,4.22801-.02727,2.48514,7.78519,4.58566,17.44958,4.69167s17.52106-1.82265,17.54829-4.30779c.02444-2.22942-6.26682-4.14436-14.53778-4.59241l.00002,.00002Z" fill="#f2f2f2" isolation="isolate" opacity=".28"/>
    <path d="M201.72502,167.527c-2.65265-.96936-3.98595-2.18752-3.97009-3.63216,.0423-3.85857,9.79778-4.9006,13.49774-5.15698l-1.06529-31.53011c-9.3699-4.08741-14.99242-9.94226-16.71628-17.40945-3.58313-15.52556,10.86249-32.27428,11.4791-32.98003l.33217-.37976,29.02496,2.39284,.25587,.4834c7.42407,14.00286,9.07076,25.5706,4.89413,34.38231-4.45921,9.40714-14.06956,12.53593-16.84329,13.26074l-2.32808,31.80389c6.91618,.48953,14.50369,2.18927,14.46672,5.53822-.0417,3.77872-9.65018,5.39436-18.55946,5.2973-4.75529-.05234-9.23248-.58115-12.6077-1.48808-.67879-.18254-1.29913-.37701-1.86047-.58215l-.00003,.00002Zm4.4119-89.01126c-2.10663,2.56249-13.78905,17.53971-10.71558,30.83804,1.60849,6.95923,7.03621,12.43098,16.13228,16.2634l.58961,.24873,1.1741,34.76183-.98305,.04832c-8.93925,.44304-5.45479,2.78075-5.46339,3.55117-.00333,.28368-6.32236,.99104-2.76624,1.95057,3.21745,.86488,7.51865,1.36888,12.11058,1.41872,10.88542,.11948,16.52609-2.27238,16.53764-3.31828,.00896-.83682-3.88834-3.05641-13.59196-3.58308l-1.01762-.05476,2.58521-35.3157,.74422-.15017c.11423-.02376,11.49796-2.43588,16.18582-12.35211,3.83369-8.10941,2.28346-18.90265-4.60776-32.08748l-18.4347,3.05113c-3.74857,.62042-7.37618-1.63436-8.47916-5.27031h0Z" fill="#3f3d56"/>
  </g>
  <g transform="matrix(1, 0, 0, 1, -89.9646, -0.468262)">
    <path d="M341.41617,111.4002h-34.22061c-.86273,0-1.5647-.70199-1.5647-1.56472s.702-1.56439,1.5647-1.56439h34.22061c.86273,0,1.56439,.70166,1.56439,1.56439s-.70166,1.56471-1.56439,1.56472Z" fill="#3f3d56"/>
    <path d="M341.41617,144.76383h-34.22061c-.86273,0-1.5647-.702-1.5647-1.56471s.702-1.56439,1.5647-1.56439h34.22061c.86273,0,1.56439,.70166,1.56439,1.56439s-.70166,1.56471-1.56439,1.56471Z" fill="#3f3d56"/>
    <path d="M359.77933,128.09296h-70.9469c-.86273,0-1.5647-.70199-1.5647-1.56472s.702-1.56439,1.5647-1.56439h70.9469c.86273,0,1.56439,.70166,1.56439,1.56439s-.70166,1.5647-1.56439,1.5647v.00002Z" fill="#3f3d56"/>
  </g>
  <g transform="matrix(1, 0, 0, 1, -89.9646, -0.468262)">
    <circle cx="271.65781" cy="97.37236" r="7" fill="#79dbe4"/>
    <path d="M271.41019,100.37249c-.12833,0-.24844-.06454-.31921-.17235l-2.10104-3.19886c-.11584-.17633-.06677-.41322,.10956-.52899,.17657-.11577,.41321-.06671,.52899,.10955l1.75912,2.67833,2.68338-4.69549c.10471-.18323,.33798-.2469,.52115-.14213,.18323,.10464,.24683,.33799,.14212,.52115l-2.99237,5.23629c-.06592,.1154-.18701,.18814-.31982,.19237l-.01187,.00013Z" fill="#fff"/>
  </g>
  <g transform="matrix(1, 0, 0, 1, -89.9646, -0.468262)">
    <circle cx="271.65781" cy="123.37236" r="7" fill="#79dbe4"/>
    <path d="M271.41019,126.37249c-.12833,0-.24844-.06454-.31921-.17235l-2.10104-3.19886c-.11584-.17633-.06677-.41322,.10956-.52899,.17657-.11577,.41321-.06671,.52899,.10955l1.75912,2.67833,2.68338-4.69549c.10471-.18323,.33798-.2469,.52115-.14213,.18323,.10464,.24683,.33799,.14212,.52115l-2.99237,5.23629c-.06592,.1154-.18701,.18814-.31982,.19237l-.01187,.00013Z" fill="#fff"/>
  </g>
  <g transform="matrix(1, 0, 0, 1, -89.9646, -0.468262)">
    <circle cx="271.65781" cy="149.37236" r="7" fill="#79dbe4"/>
    <path d="M271.41019,152.3725c-.12833,0-.24844-.06454-.31921-.17235l-2.10104-3.19885c-.11584-.17633-.06677-.41322,.10956-.52899,.17657-.11577,.41321-.06671,.52899,.10954l1.75912,2.67833,2.68338-4.6955c.10471-.18323,.33798-.2469,.52115-.14214,.18323,.10464,.24683,.338,.14212,.52115l-2.99237,5.2363c-.06592,.1154-.18701,.18814-.31982,.19237l-.01187,.00012v.00002Z" fill="#fff"/>
  </g>
  <path d="M 257.339 215.992 C 257.398 215.952 257.471 215.926 257.527 215.883 C 258.582 215.086 258.715 213.747 258.063 212.639 C 257.301 211.346 255.944 210.597 254.483 210.289 C 254.979 209.081 254.946 207.662 254.209 206.452 C 252.901 204.304 250.334 204.25 248.04 204.255 C 248.059 203.679 248.154 203.097 248.168 202.531 C 248.19 201.727 248.072 200.918 247.73 200.187 C 246.971 198.562 245.087 198.076 243.559 197.454 C 241.97 196.807 240.34 195.945 238.665 195.556 C 238.198 195.447 237.738 195.398 237.28 195.41 C 237.29 194.3 237.074 193.167 236.968 192.074 C 236.789 190.223 236.684 188.365 236.628 186.507 C 236.512 182.64 236.607 178.771 236.704 174.904 C 236.744 173.295 234.244 173.296 234.204 174.904 C 234.111 178.627 234.017 182.353 234.116 186.077 C 234.165 187.936 234.261 189.795 234.428 191.647 C 234.551 193.007 234.953 194.568 234.719 195.961 C 234.639 195.965 234.574 195.958 234.55 195.924 C 234.3 195.56 233.906 195.33 233.492 195.314 C 233.319 195.2 233.113 195.12 232.862 195.104 C 229.443 194.885 224.765 195.284 223.47 198.957 C 219.611 199.154 215.77 202.439 214.11 205.729 C 212.936 208.055 213.035 211.176 214.697 213.072 C 212.652 214.165 211.038 216.057 210.746 218.425 C 210.464 220.714 211.563 223.113 213.465 224.353 C 212.828 225.07 212.301 225.872 212.077 226.823 C 211.753 228.202 212.165 229.825 213.299 230.722 C 214.646 231.787 216.379 231.341 217.865 230.854 C 217.891 230.846 217.917 230.834 217.943 230.826 C 217.936 230.854 217.924 230.879 217.917 230.908 C 217.697 231.859 217.783 232.864 218.149 233.767 C 216.233 235.017 215.491 238.048 215.545 240.324 C 215.585 242.012 216.342 243.506 217.888 244.284 C 218.969 244.828 220.173 245.122 221.389 245.228 C 221.277 245.495 221.161 245.76 221.059 246.032 C 220.742 246.873 220.324 247.859 220.783 248.729 C 221.286 249.682 222.305 249.719 223.252 249.719 C 224.082 249.72 224.913 249.72 225.743 249.721 C 225.648 251.84 225.765 254.042 226.924 255.868 C 228.106 257.731 230.136 258.871 232.293 259.176 C 234.682 259.513 237.086 258.789 239.06 257.438 C 240.421 256.506 241.97 255.193 242.71 253.605 C 244.229 254.366 245.915 254.773 247.62 254.423 C 249.453 254.048 251.041 252.713 251.911 251.079 C 253.457 248.171 252.711 244.998 250.812 242.614 C 252.405 242.077 253.82 241.024 254.781 239.622 C 255.66 238.339 255.863 237.001 255.223 235.565 C 255.087 235.262 254.923 234.974 254.742 234.698 C 254.977 234.63 255.21 234.558 255.417 234.447 C 256.515 233.861 256.501 232.458 256.276 231.397 C 256.153 230.813 255.902 230.259 255.574 229.753 C 256.816 229.583 258.005 229.192 259.042 228.362 C 260.682 227.048 261.596 224.977 261.677 222.897 C 261.796 219.817 259.9 217.319 257.339 215.992 Z M 222.283 229.103 C 222.33 229.067 222.343 229.058 222.283 229.103 Z M 222.588 247.176 L 222.635 247.223 C 222.47 247.234 222.448 247.22 222.588 247.176 Z M 257.395 226.489 C 255.93 227.605 253.911 227.415 252.186 227.315 C 251.857 227.296 251.599 227.389 251.405 227.544 C 251.07 227.677 250.793 227.927 250.683 228.325 C 250.519 228.925 250.887 229.75 251.556 229.863 C 252.524 230.027 253.338 230.616 253.716 231.544 C 253.806 231.764 253.873 232.016 253.896 232.251 C 253.896 232.254 253.896 232.266 253.896 232.27 C 253.604 232.303 253.273 232.4 253.003 232.406 C 252.586 232.416 252.173 232.382 251.761 232.327 C 250.481 232.155 250.134 234.085 251.13 234.656 C 251.933 235.117 252.606 235.785 252.981 236.645 C 253.303 237.383 252.949 237.966 252.474 238.56 C 251.498 239.783 250.028 240.459 248.492 240.5 C 248.104 240.321 247.737 240.396 247.452 240.609 C 247.032 240.818 246.73 241.282 246.73 241.746 C 246.73 242.324 247.112 242.742 247.614 242.909 C 249.701 244.484 251.041 247.325 249.752 249.817 C 248.182 252.854 244.933 252.234 242.536 250.596 C 241.746 250.057 240.638 250.773 240.655 251.676 C 240.685 253.339 238.424 254.947 237.137 255.7 C 235.679 256.553 233.97 257.007 232.29 256.65 C 230.748 256.323 229.362 255.416 228.719 253.936 C 227.989 252.254 228.187 250.266 228.314 248.488 C 228.382 247.546 227.549 247.163 226.825 247.328 C 226.675 247.26 226.5 247.221 226.299 247.221 L 224.222 247.22 L 223.281 247.219 L 223.292 247.185 C 223.392 246.899 223.498 246.614 223.611 246.333 C 223.843 245.749 224.117 245.183 224.405 244.624 C 224.8 243.858 224.332 242.649 223.326 242.743 C 221.627 242.902 218.255 242.791 218.053 240.532 C 217.96 239.492 218.185 238.321 218.487 237.334 C 218.689 236.676 219.254 235.614 220.088 235.658 C 220.581 235.792 221.101 235.756 221.568 235.422 C 222.099 235.043 222.405 234.315 222.016 233.712 C 221.732 233.271 221.124 232.975 220.599 233.128 C 220.567 233.074 220.534 233.022 220.505 232.967 C 220.496 232.948 220.448 232.837 220.428 232.794 C 220.41 232.738 220.386 232.664 220.382 232.65 C 220.356 232.562 220.334 232.472 220.315 232.382 C 220.308 232.35 220.302 232.278 220.299 232.241 C 220.293 232.086 220.288 231.934 220.292 231.778 C 220.293 231.75 220.292 231.75 220.291 231.736 C 220.293 231.73 220.293 231.736 220.296 231.725 C 220.318 231.643 220.33 231.557 220.352 231.475 C 220.373 231.394 220.397 231.315 220.424 231.236 C 220.43 231.22 220.441 231.193 220.452 231.167 C 220.586 230.893 220.738 230.638 220.915 230.389 L 220.92 230.383 C 220.986 230.307 221.051 230.23 221.119 230.156 C 221.223 230.043 221.33 229.934 221.441 229.828 C 221.689 229.589 221.952 229.366 222.221 229.152 L 222.277 229.108 C 222.339 229.062 222.4 229.015 222.461 228.97 C 222.612 228.858 222.764 228.748 222.916 228.639 C 223.413 228.281 223.708 227.622 223.421 227.042 C 223.243 226.286 222.456 225.68 221.631 226.233 C 219.925 227.377 217.679 228.712 215.577 228.868 C 214.556 228.944 214.295 228.049 214.571 227.182 C 214.883 226.203 215.845 225.458 216.58 224.802 C 217.249 224.204 216.94 222.881 216.029 222.712 C 214.102 222.356 212.861 220.36 213.263 218.442 C 213.721 216.255 215.856 214.962 217.904 214.585 C 219.132 214.359 219.06 212.449 217.904 212.174 C 214.956 211.474 215.589 207.821 216.884 205.962 C 218.53 203.598 221.396 201.2 224.428 201.466 C 224.925 201.509 225.546 201.05 225.633 200.548 C 226.199 197.286 230.185 197.435 232.741 197.597 C 233.511 198.374 234.505 198.456 235.538 198.279 C 235.819 198.299 236.11 198.242 236.361 198.093 C 236.437 198.073 236.513 198.055 236.589 198.034 C 238.152 197.585 239.817 198.611 241.235 199.188 C 242.025 199.51 242.815 199.832 243.605 200.154 C 244.178 200.387 245.053 200.6 245.417 201.142 C 245.761 201.652 245.684 202.401 245.644 202.978 C 245.578 203.915 245.512 204.785 245.669 205.72 C 245.712 205.974 245.859 206.185 246.058 206.34 C 246.259 206.583 246.563 206.749 246.971 206.754 C 248.322 206.771 250.379 206.437 251.562 207.224 C 252.969 208.159 252.308 209.862 251.005 210.425 C 249.66 211.006 250.649 213.016 251.969 212.709 C 253.19 212.425 254.651 212.646 255.595 213.54 C 255.692 213.632 255.898 213.918 255.959 213.956 C 255.845 213.954 255.37 214.141 255.251 214.182 C 254.44 214.462 253.622 214.725 252.808 214.996 C 251.505 215.431 251.679 217.457 253.14 217.452 C 256.15 217.442 259.335 219.62 259.177 222.897 C 259.111 224.26 258.497 225.649 257.395 226.489 Z" fill="#e6e6e6"/>
</svg>